<svg id="Layer_2" data-name="Layer 2" xmlns="http://www.w3.org/2000/svg" viewBox="0 0 191.29 191.12"><defs><style>.cls-2{fill:#323232}</style></defs><g id="Layer_1-2" data-name="Layer 1"><path d="M180.16 33.39h-13.04a.7.7 0 00-.7.69v131.99c0 .38-.31.7-.7.7H25.56c-.38 0-.7-.31-.7-.7V34.08c0-.38-.31-.69-.7-.69H11.12a.7.7 0 00-.7.69v145.9c0 .38.31.7.7.7h169.03c.38 0 .7-.31.7-.7V34.08c0-.38-.31-.69-.7-.69z" fill="#323232" opacity=".15"/><path class="cls-2" d="M166.42 22.26V.7c0-.38-.31-.7-.7-.7H25.56c-.38 0-.7.31-.7.7v21.56c0 .38-.31.7-.7.7H.7c-.38 0-.7.31-.7.7v166.77c0 .38.31.7.7.7h189.9c.38 0 .7-.31.7-.7V23.65c0-.38-.31-.7-.7-.7h-23.48c-.38 0-.7-.31-.7-.7zm-65.04-11.83h53.91c.38 0 .7.31.7.7v144.51c0 .38-.31.7-.7.7h-53.91c-.38 0-.7-.31-.7-.7V11.13c0-.38.31-.7.7-.7zM35.3 33.39V11.13c0-.38.31-.7.7-.7h53.56c.38 0 .7.31.7.7v144.51c0 .38-.31.7-.7.7H36c-.38 0-.7-.31-.7-.7V33.39zm144.86 147.29H11.13c-.38 0-.7-.31-.7-.7V34.08c0-.38.31-.7.7-.7h13.04c.38 0 .7.31.7.7v131.99c0 .38.31.7.7.7h140.17c.38 0 .7-.31.7-.7V34.08c0-.38.31-.7.7-.7h13.04c.38 0 .7.31.7.7v145.9c0 .38-.31.7-.7.7z"/><rect class="cls-2" x="46.95" y="22.96" width="32.28" height="10.24" rx=".7" ry=".7"/><rect class="cls-2" x="46.95" y="44.97" width="32.28" height="10.24" rx=".7" ry=".7"/><rect class="cls-2" x="46.95" y="66.98" width="32.28" height="10.24" rx=".7" ry=".7"/><rect class="cls-2" x="111.95" y="22.96" width="32.28" height="10.24" rx=".7" ry=".7"/><rect class="cls-2" x="111.95" y="44.97" width="32.28" height="10.24" rx=".7" ry=".7"/><rect class="cls-2" x="111.95" y="66.98" width="32.28" height="10.24" rx=".7" ry=".7"/></g></svg>