<svg id="Layer_1" data-name="Layer 1" xmlns="http://www.w3.org/2000/svg" viewBox="0 0 50 50"><defs><style>.cls-1{fill:#fff}.cls-2{fill:#f0dad6}</style></defs><path class="cls-1" d="M46.75 33.52v-.29c-.31-1.77.1-3.94.16-5.74q.15-5.86.23-11.73c0-2.63-.93-3.44-3.3-4.25a13.56 13.56 0 00-3.84-.7 15.9 15.9 0 00-2.29.11c-.26 0-.74.15-.88-.16s.06-.74.07-1a16.77 16.77 0 00-.39-4.89.6.6 0 00-1-.26Q32 7.5 28.39 10.14a14.1 14.1 0 01-3.31 2 7.25 7.25 0 01-4.32-.18c-4.21-1-8.9-2.07-13-.6a23.12 23.12 0 00-3.66 1.09A2.5 2.5 0 002.71 15c0 3 0 6 .07 9l.06 9.1v6.79A10.11 10.11 0 003 42.06c.23 1 1.19 1.25 2.08 1.26 1.48 0 3-.16 4.46-.23q4.56-.21 9.13-.35 9.19-.26 18.4-.17c1.69 0 3.38 0 5.07.07 1 0 4.17.56 4.95-.25a1.44 1.44 0 00.26-1 39.83 39.83 0 00-.6-7.87z"/><path class="cls-1" d="M46.84 40.17a3.64 3.64 0 00-2.64-2.24 23.89 23.89 0 00-4.69-.59c-1.71-.12-3.42-.28-5.12-.47a16.76 16.76 0 00-1.73-.12c-2.61 0-4.59 1.58-7.06 1.92a10.55 10.55 0 01-3.63-.5 58.66 58.66 0 00-8-1 26.74 26.74 0 00-6.57.3 6.14 6.14 0 00-4 2.27c-.66 1-.76 3 .84 3.08s3.44 0 5.15 0h10.47c6.85 0 13.71.08 20.57 0a36.67 36.67 0 005-.16 1.88 1.88 0 001.41-2.49z"/><path class="cls-2" d="M41.9 11a12.78 12.78 0 00-1.9-.19 15.9 15.9 0 00-2.29.11c-.26 0-.74.15-.88-.16s.06-.74.07-1a16.77 16.77 0 00-.39-4.89.6.6 0 00-1-.26Q32 7.5 28.39 10.14a14.1 14.1 0 01-3.31 2 7.25 7.25 0 01-4.32-.18c-4.21-1-8.9-2.07-13-.6a23.12 23.12 0 00-3.66 1.09A2.5 2.5 0 002.71 15c0 3 0 6 .07 9l.06 9.1v6.79A10.11 10.11 0 003 42.06c.23 1 1.19 1.25 2.08 1.26 1.48 0 3-.16 4.46-.23q4.56-.21 9.13-.35 9.19-.26 18.4-.17c1.62 0 3.25 0 4.88.07z"/><path class="cls-1" d="M15.34 16.7c.05-1.34.14-2.68.2-4 0-.46.23-1.26 0-1.69s-1-.52-1.46-.56a14.48 14.48 0 00-4.74.23 1.3 1.3 0 00-.65.3 1.1 1.1 0 00-.2.77 29.93 29.93 0 01-.15 3.41 30.65 30.65 0 00-.21 3.71c0 1.28.15 2.56.14 3.84a22.31 22.31 0 000 3.27c.05.34.09 1.24.72 1.17a.92.92 0 00.49-.27 4.88 4.88 0 011.43-.88 2.72 2.72 0 011.69-.12c.35.12.54.46.82.67a11.09 11.09 0 001.3.84.66.66 0 00.57.09c.18-.09.19-.32.17-.5a21.06 21.06 0 01-.21-3.63 37 37 0 000-3.94c.03-.92.05-1.81.09-2.71z"/><path class="cls-2" d="M41.9 37.52c-.8-.08-1.61-.13-2.39-.18-1.71-.12-3.42-.28-5.12-.46a14.39 14.39 0 00-1.73-.13c-2.61 0-4.59 1.58-7.06 1.92a10.55 10.55 0 01-3.63-.5 58.66 58.66 0 00-8-1 26.74 26.74 0 00-6.57.3 6.14 6.14 0 00-4 2.27c-.66 1-.76 3 .84 3.08s3.44 0 5.15 0h10.47c6.85 0 13.71.08 20.57 0h1.47z"/><path d="M25.37 38.82L37 30.44a.24.24 0 00.1-.17v-26c0-.2-.31-.3-.5-.17L25 12.49a.22.22 0 00-.09.17v26c-.03.19.27.34.46.16z" fill="#f58777"/><path d="M47.68 38.33a1.5 1.5 0 00-.06-1.16 1.22 1.22 0 00-.06-.54c.41-.59-.21-1.57 0-2.34a1.27 1.27 0 000-.67 2.87 2.87 0 000-2c-.17-.85.24-1.84-.19-2.62.32-.66.09-1.5.33-2.19a10.23 10.23 0 01.05-1.94c0-.28-.11-.54-.1-.82a3.26 3.26 0 00.09-.69c-.25-.6-.06-.47-.21-1 .41-.6-.2-1.56 0-2.35a1.27 1.27 0 000-.67 1.67 1.67 0 00.15-1c.12-.51-.21-.93-.16-1.43a9.38 9.38 0 000-1.84c-.1-.15-.23-.29-.07-.46s0-.66.1-1a1.12 1.12 0 000-.52c-.14-1.35-1.58-1.4-2.52-1.93-.26-.12-.56-.07-.83-.17s-.41-.26-.65-.28c-.66.09-.49-.07-1.06 0-.47-.54-1.29-.16-1.91-.32a3.84 3.84 0 00-1.12-.22c-.71-.39-.78-.24-1.62-.31a8.23 8.23 0 000-1.11A3 3 0 0138 7.9c0-.26-.11-.52-.09-.79a3 3 0 00.09-.66 1.62 1.62 0 01-.16-.76c-.11-.21 0-.27.07-.51.2-.83-.17-1.79-1.08-1.66a2.72 2.72 0 00-1.4.73c-1 .22-1.24.87-1.92 1.39a9.14 9.14 0 00-1.44 1c-.05.16-.1.34-.32.32s-.54.34-.83.47a8.37 8.37 0 00-1.75 1.11 4.84 4.84 0 00-1.27.94c-.19.12-.43.15-.59.31s-.15.29-.28.39-.23.19-.38.35-.33 0-.48.15a6.48 6.48 0 01-1.59 1.36c-.24-.17-.58-.24-.83-.41v-.08c-.34 0-.54-.33-.92-.29a1.57 1.57 0 01-.53 0 2.73 2.73 0 00-1.1-.38 5.77 5.77 0 00-2.2-.63c-1-.07-2-.42-3.08-.46-1.4-.17-2.8 0-4.21 0-.16 0-.33.16-.5.18-.45-.14-.8.11-1.2.26h-.83c-.53.21-1 0-1.64.24a1.82 1.82 0 00-1.11.29 10.34 10.34 0 00-1.38.36c-1.16.39-3.24.56-3 2.23A16.36 16.36 0 002.1 16c.13.3-.1.62 0 .94s.11.64.09 1.09c-.09.19 0 .36 0 .55a2.58 2.58 0 00-.15 1 .89.89 0 010 .51c-.11.34.09.68.07 1a78.65 78.65 0 000 8 1.87 1.87 0 010 1.3.79.79 0 010 .64c-.16.39 0 .84-.1 1.24A40.91 40.91 0 012 36.71c.22 1.28-.11 2.59.18 3.87-.19.48.06.77.12 1.2-.11.66-.2 1.43.43 1.85a2.49 2.49 0 001.36.12c.75.23 1.18-.16 2.16 0 1.81.06 3.6 0 5.42 0a1.81 1.81 0 001-.08c.48.18.77-.05 1.2-.13.48.16 1.13 0 1.44.14s.84 0 1.24.1.68-.1 1-.07a68.72 68.72 0 007 0v-.01a7.69 7.69 0 011.15-.16c.39.15.59-.13.92.16v-.09a6.73 6.73 0 01.84.09 1.06 1.06 0 01.76.14 11.15 11.15 0 002-.18c.47.07 1.13 0 1.61 0 .22 0 .33-.16.52-.18.56.27.84.1 1.57.23a7.81 7.81 0 001.74.07 3.21 3.21 0 01.82.07c.28 0 .54-.11.82-.09a1.47 1.47 0 001.16-.07c.38.08.46-.21.74.07.55.14 1.13-.22 1.69-.19a7.07 7.07 0 001.12.06 1.67 1.67 0 001 .15c.52.12.93-.23 1.43-.16s1.13 0 1.6 0 .62-.27 1.05-.23c.59-.14.38-.94.45-1.35A8.63 8.63 0 0047.7 40a2.86 2.86 0 01.08-.82c.02-.31-.11-.58-.1-.85zm-38.54-19c.24-1.2 0-1.88.19-2.74 0-.25-.11-.5-.09-.75a1.25 1.25 0 00-.06-1.07c.06-.4-.21-.42.06-.68.16-.51-.22-1-.19-1.56h.08c0-.06-.14-.12-.14-.18-.05-.21.07-.43 0-.63.25.05.4-.16.59-.23a.85.85 0 00.44-.13c.49.34 1-.23 1.56-.23.13.05.28 0 .38 0a1 1 0 00.56 0c.38.11.42.22.87.11a1.31 1.31 0 00.78-.11c.25-.11.53 0 .78 0-.22.41.13.59-.19.94h.09c-.06.25 0 .27-.09.77.1.27 0 .47-.14.71a10 10 0 00.18 1.83 14.56 14.56 0 000 1.48c-.06.21.16.31.18.49-.32.61-.08 1.38-.33 2 .07.34-.06.68 0 1a2.73 2.73 0 01-.07.75c0 .25.1.5.09.76a1.27 1.27 0 00.04 1.14c-.06.41.22.4-.06.69-.15.5.23 1.05.19 1.56a1.22 1.22 0 000 .42c0 .13-.1.35 0 .47s-.13 0-.17 0 0 0 0 .05v.05a1.46 1.46 0 01.05.2c0 .14-.16-.17-.22-.17l-.5-.4c-.17-.22-.53 0-.58-.32s-.51-.46-.76-.73a1.13 1.13 0 00-1.49-.07c-.26.3-.63.42-.89.74s-.69.35-.87.65c0 .1 0 .08 0 0a1.31 1.31 0 01-.12.27s-.07.09-.06.06.16-.25.17-.29-.24.11-.23-.48c.07-.27 0-.27.09-.77-.09-.26 0-.47.14-.7a9.8 9.8 0 00-.18-1.84 12.19 12.19 0 000-1.48c0-.21-.14-.32-.18-.48a2.28 2.28 0 00.1-1.07zM24.3 39.67v.24a6.45 6.45 0 00-.11.73v1.68a.22.22 0 010 .08c0 .06-.15 0-.21 0s-.24.06-.32 0c-.39-.14-.43-.24-.89-.15a1.24 1.24 0 00-.8.12c-.72.16-1.6-.24-2.24.19-.55-.32-1.28-.09-1.87-.33-.31.07-.64-.07-1 0a2.38 2.38 0 01-.7-.07c-.23 0-.46.1-.7.09s-.39-.13-.58-.09c-.38.21-.51.08-.86.22-.45-.43-1.34.19-2 0a.92.92 0 00-.57 0c-.37-.14-.44-.24-.89-.15a1.2 1.2 0 00-.79.12c-.57.13-1.42-.11-2 0-.08 0-.15.15-.24.15-.5-.3-1.18-.11-1.72-.28a3.18 3.18 0 00-1.11 0c-.36.07-.69-.17-1 0s0 0 0-.07-.12 0-.13 0-.14-.15-.14-.15c.42-.46-.1-1.09-.05-1.62.06-.13 0-.29 0-.39a1 1 0 000-.58 3.37 3.37 0 001.25-.26.71.71 0 01.67-.15v-.09c.48-.13.88-.19 1.34-.35a5.18 5.18 0 002.36-.5c.91-.34 2.37-.11 3.2-.58a10.51 10.51 0 002 .17 15.32 15.32 0 002.14.18 9.47 9.47 0 002 .23 2.35 2.35 0 001.4.23c.46.17.64-.09.88.27 0 0 .19.08.25.1l.28.08.59.07a3.83 3.83 0 01.58.07 3.61 3.61 0 00.57.12 1 1 0 01.37.13 2.13 2.13 0 001 .21v.14c0 .05 0 0 .05.07a.41.41 0 01-.01.12zm-.07-21.21c-.23 1.19 0 1.93-.19 2.85 0 .27.1.53.09.79a1.38 1.38 0 00.06 1.11c-.06.43.22.43-.06.72-.15.53.23 1.08.19 1.62a6.18 6.18 0 00-.06 1.08 2.82 2.82 0 000 1.9c.11.4 0 1.47 0 2-.07.28.33.43.1.68-.18.53 0 1.36-.25 1.94A8.9 8.9 0 0124 35c0 .27.1.53.09.79a3 3 0 00-.09.66c.25.59.07.44.22 1a1.6 1.6 0 00-.17.87 10.36 10.36 0 01-1.05-.47v-.08c-.48 0-.86-.37-1.38-.38-.84.07-1.59-.49-2.43-.48a9.3 9.3 0 00-3.84-.6 24 24 0 00-10.5 1.42v.06c-.4.23-.86.4-1.27.64.11-.42-.25-.75-.17-1.16a7.49 7.49 0 000-1.57c-.09-.12-.23-.26-.07-.39a7 7 0 00.15-1.2c0-.34.13-.34.08-.79a2 2 0 000-.69 2.32 2.32 0 01.07-.7c0-.24-.11-.47-.09-.7s.13-.39.09-.59a1.34 1.34 0 01-.15-.64c-.1-.15-.06-.23.07-.35.16-.47-.22-1-.19-1.44.07-.28 0-.18.09-.72-.09-.25 0-.44.14-.65a8.18 8.18 0 00-.18-1.7 10.41 10.41 0 000-1.37c0-.2-.15-.29-.18-.45.28-.49.1-.63.23-1.34a1.19 1.19 0 01.1-.53c-.07-.31.06-.64 0-1a2.38 2.38 0 01.07-.7c0-.23-.11-.46-.09-.7s.13-.39.09-.58-.14-.26-.15-.4c.06-.38-.21-.38.06-.64.16-.47-.22-1-.19-1.44.07-.26 0-.17.09-.71-.09-.26 0-.43.14-.66a3 3 0 00-.18-1.4c.44-.24.86-.22 1.14-.66.57.1.61-.12 1.32-.2 1-.08 1.33-.37 2-.39a2.88 2.88 0 010 .59h-.09c.14.33-.1.66 0 1a1.4 1.4 0 01.15.53c-.15.6 0 1.24-.13 1.56s0 .9-.1 1.34a2.26 2.26 0 00.07.93c-.11 2.14-.12 4.28-.06 6.43.1.45-.12.92 0 1.34s0 .42 0 .84a3.44 3.44 0 00.36 1.55c.07.2.26.24.43.27a11.71 11.71 0 003.34-2.3h.06c.06 0 0 0 0 0 .69.67 1.06.91 1.9 1.63a2.47 2.47 0 001.48.74c1.15.05.68-1.67.75-2.41a1.8 1.8 0 00.02-1.01c.19-.48-.05-.85-.13-1.29.17-.56 0-1.22.14-1.56a2.85 2.85 0 000-1.05 3.06 3.06 0 000-1.38c.13-2.53.14-5.11 0-7.61H16a5.18 5.18 0 01-.12-.88c.17.06.28-.14.42-.14.45.32 1.29.23 1.77.56.31 0 .61.14.92.13a2 2 0 01.65.22c.22.07.47 0 .69.06s.33.21.52.23a1.06 1.06 0 01.68 0c.18 0 .24 0 .31.16.4.28 1 .06 1.4.28v.07s.15-.09.2-.07c.28.08.45.24.77.18a2.73 2.73 0 000 1.85c.13.41 0 .83 0 1.26a8.06 8.06 0 000 1c0 .1.15.17.15.27a2.61 2.61 0 00-.13 1.17zm2.52-6.4a2.4 2.4 0 011.16-.89c.32-.44.92-.42 1.3-.83s.88-.42 1.23-.93c.42-.33.91-.52 1.29-.88 1.59-.88 3.1-2.33 4.55-3.19 0 0 .06-.21.12-.23s-.06.2 0 .17.17 0 .15.08c-.16.57 0 1.15-.13 1.55a3.12 3.12 0 000 1.1 1.94 1.94 0 000 1c0 1.91-.15 3.83 0 5.74a17.11 17.11 0 00.1 2.87c-.17.5.07.87.13 1.34-.14.55 0 1.27-.13 1.63s0 .95-.11 1.4a13.36 13.36 0 010 2.13 29 29 0 000 3.61 17.45 17.45 0 000 2.17s0 .06-.06 0-.15.18-.23.25l.07.09-.07-.09c-.21.29-.62.32-.85.64-.11.15-.19.35-.36.45-.53.2-1 .72-1.4.84s-.74.59-1.19.73c-.58.33-1 .94-1.73 1.26-1.6 1.1-3.3 2.3-4.8 3.48h-.05a.51.51 0 01-.05.12s-.07-.07-.08-.11h-.06a1.21 1.21 0 010-.82c-.15-.59.22-1.13.06-1.83.09-2.83.12-5.68 0-8.54a1.94 1.94 0 00-.08-1.1c.19-.48 0-.89-.13-1.35.17-.55 0-1.3.14-1.62a3.19 3.19 0 000-1.11 3.49 3.49 0 000-1.44c.12-2.27.14-4.55 0-6.81.14 0 .2-.15.29-.24.28-.31.69-.31.92-.64zm19.49 28.69a14 14 0 000 1.44s-.07.07-.08.06c-1.61-.08-3.3.14-4.94 0a4.16 4.16 0 01-.59.13c-.73-.2-1.28.26-2.09.07a1.17 1.17 0 00-.64 0 3.08 3.08 0 00-1.21-.15 1.11 1.11 0 01-.6 0c-.39-.1-.79.1-1.19.08-2.6-.12-5.7-.15-8.24 0v.06c-.35.09-.73.08-1.1.15.06-.1.11-.19 0-.3s-.22-.17-.11-.29.14-.17 0-.38c.07-.13.22-.27.15-.43a.2.2 0 010-.22c.12-.15-.09-.28-.07-.42.05-.44.05-.58.1-1 .46-.17 1-.36 1.5-.49v.08c.39-.29.88-.16 1.31-.43a2.9 2.9 0 01.65-.35c1.07-.18 2.08-.33 3.15-.41a29.64 29.64 0 0112.32 1.15v-.06a7.6 7.6 0 011.54.43c-.1.42.16.85.14 1.28zm.12-17.25a9.21 9.21 0 00-.19 1.81 16.23 16.23 0 010 2.22c-.11 2.29.06 4.6 0 6.91.21.53 0 .89.1 1.4a2.54 2.54 0 010 1.52c.12.46 0 .62-.07 1-.37-.34-.86-.23-1.16-.62v.09a12.62 12.62 0 00-3.43-1.13c-1.17.11-2.31-.41-3.49-.32a.54.54 0 01-.61 0 20.38 20.38 0 00-7.13.23 2.77 2.77 0 01-1.53.42l1-.68c.19-.09.18-.33.3-.45.4 0 .67-.31 1-.51a7.75 7.75 0 001.75-1.11 3 3 0 01.69-.4c.22-.13.36-.39.58-.53a3 3 0 00.59-.32 1.7 1.7 0 01.53-.57.28.28 0 01.36-.18c.53-.18.76-.82 1.21-1.1.17-.09.86-.48.88-.71a2.06 2.06 0 01.19-1 3.67 3.67 0 00-.14-1.44c-.12-.26.09-1.8 0-2.24-.1-.15-.23-.29-.07-.45.19-.6 0-1.33.25-1.94a9.73 9.73 0 010-1.87c0-.26-.11-.52-.09-.79a3 3 0 00.09-.66 1.62 1.62 0 01-.16-.76.28.28 0 01.07-.4c.14-.53-.22-1.09-.19-1.63a6.43 6.43 0 01.09-.8 1 1 0 01.14-.74 10.19 10.19 0 00-.18-1.92 4.1 4.1 0 00-.15-2 1.21 1.21 0 00.16-.56c1 .07 2 .27 3 .26.52.33 1.1 0 1.6.24a4.28 4.28 0 001 .27 3.66 3.66 0 001.09.48c.44.09.76.47 1.25.47a1.08 1.08 0 01.49.18c.11 1.16-.21 2.58 0 3.8 0 .78-.08 3.07 0 3.46s-.1.72 0 1.11a1.94 1.94 0 01.16.57 4 4 0 00.02 1.39z"/><path fill="none" stroke="#29aaac" stroke-miterlimit="10" stroke-width="4" d="M-518.9-95.79h882.41v308.48H-518.9z"/></svg>