<svg xmlns="http://www.w3.org/2000/svg" viewBox="0 0 50 50"><path d="M45.851 20.506a15.4 15.4 0 00.223-5.741 11.923 11.923 0 00-3.908-7.391 3.7 3.7 0 00-2.993-1.123c-1.389.256-2.118 1.675-3.186 2.447a32.555 32.555 0 00-3.948 3.255c-3.016 3-5.313 6.647-8.286 9.686-3.049 3.117-6.718 5.51-10.173 8.136a44.18 44.18 0 00-5.05 4.354c-1.321 1.364-3.008 2.361-3.968 4.05a7.22 7.22 0 00-.733 3.386c-.024.832-.3 2.6.066 3.326a1.664 1.664 0 00.675.647c2.287 1.348 6.179.13 8.561-.412a1.452 1.452 0 00.575-.223 1.5 1.5 0 00.378-1.252l-.029-2.051c-.015-1.051.1-2.327 1.044-2.791 1.182-.579 2.474.647 3.789.693a1.1 1.1 0 001.153-.672 1.5 1.5 0 00-.168-.9 14.521 14.521 0 01-.766-2.565 1.638 1.638 0 010-.9c.253-.661 1.17-.749 1.847-.543a4.76 4.76 0 002.046.483 3.019 3.019 0 001.657-1.191l2.965-3.414a2.877 2.877 0 011.407-1.06 2.774 2.774 0 011.179.07c4.946 1.032 9.128.03 12.751-3.66a13.733 13.733 0 002.121-2.759 6.681 6.681 0 00.771-1.885z" fill="#fff"/><path d="M4.1 42.841c2.078.692 6.58 1.1 9.408-2.309 2.2-2.644 9.44-9.954 12.567-13.087a3.946 3.946 0 013.279-1.112c2.858.345 8.43.2 11.914-5.193a13.122 13.122 0 00-.115-14.371s-4.271-2.712-7.041-2.828a15.478 15.478 0 00-8.425 2.309c-1.905 1.385-3.925 5.714-4.329 6.522s-.462 6-.462 6l.693 2.712L4.39 37.646z" fill="#f15f48"/><path d="M46.958 16.252c-.132-.142-.24-.249-.12-.43.14-.28-.01-.62.02-.93.043-.337-.1-.636-.03-.97-.136-.846-.369-1.029-.45-1.78-.05-.27-.29-.44-.38-.69a2.379 2.379 0 00-.18-.63c-.466-.41-.274-.377-.64-.73.12-.675-.715-.944-1.02-1.44a1.031 1.031 0 00-.24-.35 1.232 1.232 0 00-.38-.49c-.1-.12-.1-.3-.18-.45a2.766 2.766 0 00-1.12-.86c-.7-.38-1.265-1.268-2.1-1.23-.358-.6-.9-.533-1.7-1.19-.589-.185-1.183-.343-1.75-.57-.25-.08-.53 0-.78-.07-.21-.06-.4-.21-.62-.18a2.4 2.4 0 01-.876.109c-.215-.009-.337-.2-.554-.159a11.052 11.052 0 01-1.72.27 1.229 1.229 0 00-.62.03 2.345 2.345 0 00-1.53.18c-.643.554-1.624.511-2.29 1.05-.087.155-.143.317-.35.26-.32-.03-.56.27-.85.38-.325.092-.561.322-.88.41-.843.581-.738.73-1.45 1.14-.19.17-.28.44-.47.62-.16.15-.39.22-.49.42-.061.122-.085.26-.148.382s-.155.229-.213.358a.375.375 0 01-.079.132.477.477 0 01-.137.069c-.256.111-.328.386-.421.624-.1.258-.186.524-.308.774s-.287.452-.423.683a1.772 1.772 0 01-.451.628 8.911 8.911 0 00-.35 1.03 1.8 1.8 0 01-.06.8 2.73 2.73 0 00-.218.8c-.021.137-.041.275-.064.413a1.054 1.054 0 00-.05.423c.023.091.086.167.111.257a.111.111 0 01.006.051.151.151 0 01-.021.053 2.464 2.464 0 00-.2 1.038c-.091.319-.035.651-.14.97a8.442 8.442 0 00.12 1.05 4.011 4.011 0 00.31 1.51 1.344 1.344 0 00.2.807.271.271 0 01.058.332 2.127 2.127 0 01-.209.337 3.816 3.816 0 01-.956.941c-.088.069-.171.144-.259.211-.193.147-.442.208-.619.363-.2.176-.373.382-.564.569-.166.521-.637.718-.99 1.09-.149.158-.334.28-.481.44-.111.119-.16.275-.276.394a6.005 6.005 0 01-.8.614 8.753 8.753 0 00-.907.664 3.779 3.779 0 00-.633.618c-.5.475-.568.34-1.05 1.02-.15.13-.38.18-.5.35a1.44 1.44 0 01-.41.6c-.036.172-.156.212-.31.21-.463.213-.582.848-.97 1.16-.118.094-.232.2-.353.288-.069.052-.147.081-.211.139s-.119.147-.194.207a.817.817 0 01-.258.122 1.124 1.124 0 00-.145.058 1.625 1.625 0 00-.355.313 1.978 1.978 0 00-.394.427 3.243 3.243 0 01-.266.448 2.274 2.274 0 01-.337.313c-.2.165-.39.343-.576.524-.149.145-.379.3-.438.513a.822.822 0 01-.045.156.53.53 0 01-.268.192A3.1 3.1 0 006.23 35c-.239.22-.517.381-.759.595-.352.311-.635.69-1 .992-.064.053-.13.105-.2.156a1.66 1.66 0 00-.372.619 2.449 2.449 0 00-.328 1.048 2.962 2.962 0 01.038.4c-.01.134-.01.266-.016.4s-.118.207-.179.312a.787.787 0 00-.061.411 4.319 4.319 0 01.058 1.057c-.126.818-.175.415-.16 1a1.487 1.487 0 00-.22.94 1.353 1.353 0 00.09.86c.121.8-.159 2.119.86 2.44.237.021.435-.111.59.09.25.21.62.13.92.22.249.117.513.032.76.16a4.283 4.283 0 001.2.05 3.88 3.88 0 001.49-.05c.21.01.42.12.63.06a1.457 1.457 0 01.72-.2c.06-.03.11-.09.18-.08.56.353 1.161-.243 1.73-.31.16.03.32-.08.44-.09a1.139 1.139 0 00.67-.21 1.4 1.4 0 001.02-.76 1.274 1.274 0 00.33-1.01 5.622 5.622 0 000-2.3c-.129-.12-.256-.231-.11-.39.135-.376.006-.62.22-.96.057-.224.281-.162.27-.32.286-.175.5-.539.88-.43.13.02.29-.11.47-.06.15.05.27.21.45.23a1.158 1.158 0 01.69.11.288.288 0 01.35.21 2.433 2.433 0 002.44-.47c.415-.239.537-.72.82-1.28a2.09 2.09 0 00-.45-1.57 14.166 14.166 0 01-.69-1.82c-.121-.088-.25-.171-.1-.28.19-.12.08-.22.28-.33.08-.05.13 0 .16-.06.145-.076.147.118.28.05a4.025 4.025 0 011.28.55 2.663 2.663 0 002.05-.04c.212-.152.125-.273.28-.44a1.065 1.065 0 00.31-.38c.626-.037.753-.885 1.19-1.22.478-.426.5-.308.76-.66a1.422 1.422 0 00.78-.53c.41-.237.443-.75.82-1.01a9.591 9.591 0 001.19-1.15c-.033-.043-.058-.15-.02-.17.061 0 .161.143.21.13.235.067.858.3 1.14.43.127.12.3.068.45.12a1.949 1.949 0 00.76.11 3.586 3.586 0 001.54.09 2.426 2.426 0 00.65.09 1.7 1.7 0 01.74-.2.269.269 0 01.39.03c.522.054 1.03-.368 1.53-.46a7.14 7.14 0 01.78-.11 1.02 1.02 0 01.72-.1 5.685 5.685 0 001-.44 1.733 1.733 0 01.64-.48 5.566 5.566 0 001.46-.9c.05-.09.04-.22.13-.27.392-.031.629-.329.96-.55.256-.1.386-.362.64-.46.175-.03.214-.221.36-.3a7.8 7.8 0 001.42-1.82c.12-.18.34-.3.41-.5a2.6 2.6 0 01.24-.73c0-.2.068-.254.24-.32.387-.39.23-1.067.46-1.52.1-.12.1-.29.15-.39a1.264 1.264 0 00.22-.59 1.449 1.449 0 00.37-.92 1.314 1.314 0 00.01-.89c-.063-.409.127-.791.08-1.21a5.274 5.274 0 00-.003-.968zm-1.52 2.33a7.786 7.786 0 01-.5 1.93 1.847 1.847 0 01-.04.51c-.325.324-.223.757-.36 1.14a3.321 3.321 0 00-.32.5c-.174.112-.194.3-.27.47-.465.324-.631.791-1.03 1.14-.3.187-.372.552-.6.8-.417.344-.766.7-1.2 1a19.534 19.534 0 01-2.62 1.62c-.514.182-.923.405-1.42.57a1.722 1.722 0 00-.92.32c-.475-.105-.747.2-1.15.32a5.876 5.876 0 01-.8-.05.78.78 0 01-.64 0c-.39-.166-.837.013-1.21-.17-.315-.146-.675.021-1-.07-.988-.164-2.143-1.014-3.03-.11-.26.236-.529.507-.81.72-.326.325-.522.757-.94 1.01-.546.437-.95 1.043-1.53 1.44a3.837 3.837 0 01-.29.46c-.428.165-.557.625-.8.96-.25.144-.427.352-.67.49a1.71 1.71 0 00-.14.2 2.311 2.311 0 00-.75-.27 2.332 2.332 0 00-1.37-.5 2 2 0 00-2.35 2.61c.211 1.01.993 1.862.91 2.89-.068.181-.273.172-.31.36-.143.208-.188-.012-.51.07-.405.2-.811-.182-1.16-.37a1.383 1.383 0 01-.7-.26 2.3 2.3 0 00-2.67.57 3.5 3.5 0 00-.95 3.35 9.893 9.893 0 00.09 1.26 2.4 2.4 0 01-.65 1.15 1.912 1.912 0 01-.58.14c-.08.01-.13.11-.21.13-.08 0-.14.1-.22.1a1.359 1.359 0 00-.69.08c-.332.28-.685.194-1.08.21-.2-.086-.373.016-.55.05a2.944 2.944 0 00-1.32-.08 2.055 2.055 0 00-1.14 0 9.629 9.629 0 01-2.29-.33 3.089 3.089 0 00-.12-.83c-.029-.573.109-1.137.09-1.72s.193-.962.05-1.52c.234-.406.05-.819.04-1.23a3.48 3.48 0 00.25-1.13 5.3 5.3 0 01.29-.51c.086-.045.156-.23.25-.31a1.97 1.97 0 00.78-.83c.707-.685 1.456-1.308 2.17-1.98.6-.442.934-1.079 1.52-1.52a21.2 21.2 0 001.7-1.69c.143-.311.528-.361.69-.7a1.331 1.331 0 01.27-.46 3.438 3.438 0 00.89-.78 2.89 2.89 0 001.06-.83 2 2 0 00.85-.81c.323-.358.775-.575 1.07-.95 1.56-1.17 2.759-2.685 4.28-3.9.119-.137.175-.333.3-.45a1.387 1.387 0 00.55-.47c.176-.38.468-.633.55-1a5.71 5.71 0 00-.14-.85c-.03-.11-.13-.19-.16-.3.072-.712-.19-.984-.15-1.53a5.427 5.427 0 01-.16-1.85 15.99 15.99 0 01.59-3.72c.236-.733.566-1.409.85-2.09.034-.313.358-.481.45-.81.063-.735.63-.761.88-1.36a3.127 3.127 0 00.97-.83c.429-.148.624-.555.96-.82a12.95 12.95 0 016.14-2.33c.528-.3.679-.015 1.18-.15.28-.076.414-.2.718-.107.28.08.561.072.844.125.26.049.5.169.749.243a4.032 4.032 0 01.769.209c.29.2.657.1.97.23a11.851 11.851 0 012.88 1.67c.352.25.8.372 1.06.76.349.372.754.684 1.09 1.07a1.637 1.637 0 00.48.55c.269.167.277.545.57.73.357.184.447.556.62.89.005.2.172.318.25.48a2.43 2.43 0 00.27.99.762.762 0 01.11.5c-.006.349.317.6.35.93a11.869 11.869 0 01.16 3.33 3.251 3.251 0 01-.04 1.3z"/><path d="M22.905 24.153a3.66 3.66 0 00-.558.475 14.343 14.343 0 01-1.206 1 1.922 1.922 0 00-.453.469 2.719 2.719 0 01-.41.61c-.291.261-.625.469-.9.745a2.623 2.623 0 01-.4.41c-.185.116-.365.242-.543.37a5.717 5.717 0 00-.574.525c-1.477 1.394-2.928 2.818-4.46 4.18-.593.585-1.192 1.163-1.79 1.743s-1.184 1.151-1.768 1.736a5.548 5.548 0 00-.8.839 5.262 5.262 0 01-.675.857 2.99 2.99 0 00-.638.825c-.126.3-.085.381.19.5.433.061.816-.314 1.2-.51.124-.063.224-.266.33-.361.06-.053.129-.083.191-.13.2-.148.385-.326.58-.483a4.638 4.638 0 00.6-.556 5.607 5.607 0 01.54-.29 6.032 6.032 0 001.25-1.39 8.536 8.536 0 011.232-1.179 5.58 5.58 0 00.593-.588 2.871 2.871 0 00.241-.33c.065-.105.1-.253.212-.318a3.732 3.732 0 00.583-.376c.179-.157.345-.328.529-.479a13.859 13.859 0 002-1.76 9.808 9.808 0 001.46-1.42 2.535 2.535 0 00.99-1.05c.042-.084.193-.176.257-.256a1.3 1.3 0 01.112-.15c.162-.151.389-.213.562-.359a2.8 2.8 0 00.471-.553c.183-.263.385-.511.587-.761a3.441 3.441 0 01.491-.571 1.751 1.751 0 00.59-.78c.138-.2.327-.557.092-.764-.187-.167-.541.023-.708.13zM33.587 7c-.3-.016-.605.021-.908.019a2.459 2.459 0 00-1.217.13c-.134.073-.249.181-.389.241a1.435 1.435 0 01-.289.078c-.157.031-.313.066-.469.1a1.947 1.947 0 00-.612.281 2.4 2.4 0 01-.608.162 1.714 1.714 0 00-.627.328c-.464.321-1.016.5-1.31 1.03A9.753 9.753 0 0024.938 12a8.142 8.142 0 00-.756 1.968 10.417 10.417 0 00-.342 2.015 4.5 4.5 0 00.042.957c.041.278.129.545.189.819.07.321.09.793.387 1a.386.386 0 00.558-.16 1.254 1.254 0 00.123-.386 1.639 1.639 0 00.047-.423c-.009-.152-.062-.3-.065-.452 0-.132.047-.255.056-.386.006-.081-.038-.186-.009-.264a1.419 1.419 0 00.07-.6 1.9 1.9 0 00.26-.9 1.905 1.905 0 01.079-.449 2.373 2.373 0 00-.037-.437 2.173 2.173 0 01.273-.779c.143-.3.314-.595.445-.9.178-.194-.076-.515.23-.6.462-.364.769-.975 1.33-1.24a4.108 4.108 0 011.35-1.03 1.171 1.171 0 00.343-.271.946.946 0 01.418-.221 1.339 1.339 0 00.4-.189c.06-.041.114-.092.175-.132.14-.1.3-.148.431-.249a.255.255 0 01.35-.028c.193.12.612-.154.784-.235a4.9 4.9 0 01.813-.324 4.8 4.8 0 01.525-.03 1.965 1.965 0 00.44-.114c.218-.086.6-.326.519-.607a.311.311 0 00-.039-.083c-.138-.223-.506-.259-.74-.27zM40.139 10.67a1.36 1.36 0 00-.339-.57 1.179 1.179 0 00-.51-.325 1.729 1.729 0 01-.456-.155c-.121-.08-.2-.209-.326-.284a.714.714 0 00-.405-.049 3.907 3.907 0 00-.811.231 1.267 1.267 0 00-.61.712 2.272 2.272 0 00-.288 1.053 1.615 1.615 0 00.268.882c.172.189.456.2.636.371.058.057.1.129.154.189a1.1 1.1 0 00.245.182 1.021 1.021 0 00.276.134 1.035 1.035 0 00.338.01 3.734 3.734 0 00.725-.1 1.724 1.724 0 00.926-.8 1.805 1.805 0 00.237-.6 1.467 1.467 0 00-.064-.624c-.009-.08.021-.169.004-.257zm-1.288.715a1.489 1.489 0 01-.1.165.386.386 0 01-.065.08.392.392 0 01-.159.069 1 1 0 01-.389.061.3.3 0 01-.076-.031.849.849 0 01-.211-.122c-.077-.072-.054-.127-.052-.212 0-.033-.024-.15 0-.174.064-.069.042-.15.072-.231a.44.44 0 01.185-.208.9.9 0 01.368-.107.172.172 0 01.108.012.952.952 0 01.362.356.371.371 0 01-.043.342z"/></svg>